PathFileType	4	(X/Y/Z)	67_1_25_p0_0-210_filt_butterworth.trc
DataRate	CameraRate	NumFrames	NumMarkers	Units	OrigDataRate	OrigDataStartFrame	OrigNumFrames
55.0	55.0	6	27	m	55.0	0	210
Frame#	Time	RHip			RKnee			RAnkle			RBigToe			RSmallToe			RHeel			LHip			LKnee			LAnkle			LBigToe			LSmallToe			LHeel			Neck			Head			Nose			RShoulder			RElbow			RWrist			RThumb			RIndex			RPinky			LShoulder			LElbow			LWrist			LThumb			LIndex			LPinky			
		X1	Y1	Z1	X2	Y2	Z2	X3	Y3	Z3	X4	Y4	Z4	X5	Y5	Z5	X6	Y6	Z6	X7	Y7	Z7	X8	Y8	Z8	X9	Y9	Z9	X10	Y10	Z10	X11	Y11	Z11	X12	Y12	Z12	X13	Y13	Z13	X14	Y14	Z14	X15	Y15	Z15	X16	Y16	Z16	X17	Y17	Z17	X18	Y18	Z18	X19	Y19	Z19	X20	Y20	Z20	X21	Y21	Z21	X22	Y22	Z22	X23	Y23	Z23	X24	Y24	Z24	X25	Y25	Z25	X26	Y26	Z26	X27	Y27	Z27	
0	0.0	0.3495479739678822	0.5520891567873181	-0.15116489121725196	0.3300961695440924	0.7634284539784866	0.29685657661337544	0.34030954579089656	0.9396897895555701	0.7201045047363325	0.3300736136054857	0.6402705570380133	0.7945709363628375	0.39075742679997394	0.7273415142365474	0.7966517611100883	0.32478876059763984	0.9900030992333664	0.7800940110246309	0.16316521952334992	0.5749738747538328	-0.1269802568369193	0.13052370585626843	0.7912372411655663	0.30008353516151914	0.12035093325389512	0.9372978449451145	0.7380840097027689	0.18713131369972302	0.6582059109375017	0.7939330088680769	0.12697898374214062	0.7178295321865017	0.795292064214811	0.13778521113406375	1.0361254392176094	0.7934435419151139	0.2765631609558023	0.4574486645658983	-0.6666888938817159	0.2932221967793865	0.3606762253275971	-0.9030541879713233	0.29697500262065873	0.32850356220732196	-0.75662850166097	0.4196196354184762	0.49424940746040547	-0.5684757130012951	0.4231037632341381	0.46179438101729375	-0.3032641005007545	0.29439054182831226	0.3507724444427357	-0.11771017245803762	0.22589769902127615	0.3735980878474522	-0.027211898815671532	0.22633350037784633	0.36499647875175867	-0.02422615456544002	0.24763076758168057	0.2881941807310751	-0.03482808856911173	0.11940462974973987	0.5328079922441037	-0.5985839682944466	0.10897725415022227	0.5190211213353515	-0.3339855936408048	0.18507747857193654	0.351786850020094	-0.12426410594215782	0.2620046479408085	0.30213598343071096	-0.057335071881286746	0.2639803292577336	0.2840522907776667	-0.0363339373086877	0.22158277850716637	0.3283615734034973	-0.028891821712077388
1	0.0181818181818181	0.35117282116962206	0.5483647675033184	-0.14412380142813644	0.3286160509846564	0.7601354128791065	0.29888445662368884	0.34030072383452425	0.9397348826440705	0.7201338982890326	0.33017919372552884	0.6419217605743504	0.7946034785150577	0.3914497498628558	0.7302686385013457	0.7991454789771487	0.3266271342461619	0.9969453668238437	0.7836984152285784	0.16329550103499293	0.5749140641850103	-0.12291343312947522	0.13445018536276232	0.7800202945212408	0.29870555570190294	0.12275264220402358	0.9390118026667558	0.7388790523832055	0.18561594364913292	0.6648209473042245	0.7957861607271887	0.12694930086614606	0.7183230527540891	0.7954277669360892	0.13910910651277833	1.0427142568844443	0.7938659068658835	0.2777501123714579	0.45766807178136987	-0.6678657261141668	0.2960879905396711	0.3614969656122159	-0.9033389796635539	0.29638582737178054	0.33785098850515205	-0.7587005721901195	0.41968186825276754	0.49436738465305136	-0.5672531765862898	0.42409608849609715	0.4586216663405935	-0.3026728748770237	0.29407487602071236	0.3507983136617214	-0.11841943680733176	0.2298303340419504	0.3835779143623998	-0.023059187716659477	0.23015389992990162	0.3823362469564099	-0.020841099499584913	0.2481556827639287	0.2960944645203486	-0.03411836904537035	0.11941460055251579	0.5330121598828381	-0.5985694792564462	0.10471785538318343	0.5091333344009846	-0.32754333279301534	0.18656044946659117	0.3490147855545451	-0.1229163690000318	0.26483076740555245	0.31790372258733746	-0.04830919292469512	0.2646855805929927	0.30478219194644923	-0.031967684651348006	0.22306240781291675	0.3159632635332933	-0.029008910352439642
2	0.0363636363636363	0.3505803983560909	0.5458880353673069	-0.14045673195026276	0.32805419513336415	0.757254219259959	0.299406889902245	0.3403171049197118	0.9397947184430867	0.720169055215782	0.3302690311807673	0.6425201727313418	0.7937714345848902	0.3920123633765249	0.7317857825887406	0.8013413035275623	0.32833074848810045	1.0004644167126124	0.7874308049307288	0.16334023368760714	0.574878676173646	-0.12201815448088688	0.13667902614284777	0.7737518126267648	0.29793928334588343	0.12350457237769644	0.9396603172575221	0.7392600053069354	0.18500314321062497	0.6710760251823243	0.7975292001587394	0.12698171191725924	0.7186112424720927	0.7954871961870278	0.1396965489860263	1.0478929499828253	0.7941440862235898	0.27776565412747867	0.4578707023465439	-0.6679218553300429	0.29771172405443447	0.36192548587334217	-0.9034723212532499	0.2960340269685309	0.343030422978333	-0.7598096679551004	0.4197218729046736	0.4945045122568603	-0.56615600433081	0.42325653640081795	0.4626536712215308	-0.30188978352752827	0.2938986357010589	0.35098148976011334	-0.11761528462167739	0.23278011838308083	0.39006161488970625	-0.02055074536353654	0.23414189057380091	0.3928858362181636	-0.018975210717101187	0.24888371861187988	0.30243868311281663	-0.03303900217445799	0.11942679122636429	0.5331353023251285	-0.5985516737932051	0.10223957597319171	0.5038383820731648	-0.3232468739304087	0.1867042236155981	0.34982987852794556	-0.12159651745790868	0.2673532662725401	0.33215705309960064	-0.04180542670790692	0.2647830425991485	0.3187057135013961	-0.02871773051410309	0.2237901758179325	0.31011820489551795	-0.02838314674035663
3	0.0545454545454545	0.3484648019015865	0.5437248892764848	-0.14045236416142465	0.32822241953037423	0.754692108123675	0.29892864110476736	0.3403831356280409	0.9399519563597682	0.7201925600078101	0.3304341306847635	0.6427550343935625	0.7928882796751104	0.39242424886537486	0.7319212555265504	0.8026665506922483	0.32905981213445534	0.9990121920285555	0.790048152825976	0.16331864937316834	0.5748980445692964	-0.12396980529437569	0.13725764342027563	0.7724667297377478	0.2977619332199256	0.12303341324668284	0.9394858894574978	0.7392716343968518	0.18561819301583554	0.6751464295677386	0.7989676840749674	0.1270919731521164	0.718693659869637	0.7954781603279022	0.1393030439911642	1.0500857309748937	0.7937845355581272	0.2770588015608643	0.45800360297778475	-0.6672732758600272	0.29809413296458304	0.3619439781886783	-0.9034258964632863	0.29590154750056874	0.3439991855374925	-0.7600274553052793	0.4197425698987324	0.4946040325330474	-0.5653464063310107	0.42090876976494007	0.47260171310088805	-0.3010322130741313	0.2938967687142014	0.3512592177605147	-0.11588764053052594	0.23322020672769753	0.3894350370472558	-0.019624184354393486	0.23624365350654353	0.3945330582758714	-0.018523293572557976	0.24978014940550292	0.3116169942953881	-0.031503186855050866	0.11943184528454662	0.5331547617940783	-0.5985357013442724	0.10162334570575592	0.5030289882639428	-0.3223290629087917	0.1859844679809779	0.3526209196512211	-0.12066032890796785	0.2686959910315694	0.34035424956141785	-0.03828018305320643	0.2641899944675466	0.32340126133273545	-0.027138907396159945	0.2241781546166907	0.311425967906411	-0.027007824678485035
4	0.0727272727272727	0.34683182106128724	0.5416667959940795	-0.14186039769685685	0.3280250416399649	0.7518323901627396	0.2986711414132036	0.34047893853797095	0.9403840798589373	0.7202176391768063	0.33084017396808213	0.6437171867768484	0.7937219894150568	0.3927042905222454	0.7318882076653626	0.803056514081129	0.3283201887780491	0.9952723410341984	0.7905874268748959	0.1632482144531901	0.574936475776895	-0.12633897598130298	0.13713339294450916	0.7731716411981149	0.29778190551887446	0.12254419938907642	0.939222611329258	0.7391858135196997	0.18667748687250832	0.6764191943814557	0.800390593158683	0.12722440671349725	0.7186543667718635	0.7954435517595078	0.1384338400016125	1.0496497474887374	0.7926534744316943	0.2765627934247294	0.45805394715771086	-0.6667771946028235	0.29798539826134923	0.3618093859067405	-0.9032985991617196	0.2958396192218983	0.3433178532187111	-0.7601937858964347	0.4197595450207312	0.4946439511220887	-0.564778018510703	0.41839759504389357	0.4829148058984923	-0.3005227485072438	0.29392643379757666	0.3515634591146543	-0.11467352507992357	0.23183558291469625	0.3809263095097895	-0.019165157357787444	0.23497952143453496	0.39123728476469544	-0.018361165282123434	0.25041815982969495	0.3289192602968517	-0.029424972833266623	0.11941714443620946	0.5331222589546697	-0.5985279083344786	0.10206197604576275	0.504011093358115	-0.3238059236642672	0.1854296998651348	0.3543842928581614	-0.12025047153430667	0.2685988282759516	0.3411549002311146	-0.036434610968922546	0.2636206562036968	0.32344869049677655	-0.02681814157984303	0.22521274426841345	0.31540282377007917	-0.02548950791712611
5	0.0909090909090909	0.3463814037408456	0.540624128988445	-0.14271474930243355	0.32721276948021527	0.749260484475443	0.2988373897749284	0.3404365955540032	0.9410373913541314	0.7203153776561209	0.33142265930737164	0.6449843328246295	0.7965299068970976	0.3928289846646833	0.732177822574415	0.8030368917817717	0.32686872464695005	0.9927979740232415	0.7895807620817085	0.16295408477673182	0.574801603601959	-0.12811864020468516	0.13647830909905131	0.7738820207465096	0.2977912956008328	0.12239950173749556	0.9391504515305364	0.7391799251208994	0.18729023600888095	0.6764376125646182	0.8020140470276745	0.127309376094522	0.7185692861702457	0.7954141652706777	0.137426057151687	1.0484738796882695	0.7916244467887148	0.2764619863190521	0.45807750445609907	-0.6665910662255844	0.2978922868933596	0.36171569090096506	-0.903202387443657	0.2957846262116144	0.34281079588623753	-0.7609575886888291	0.41977260155164153	0.4946642951054262	-0.5643857502654903	0.4165526987274906	0.4901782579307515	-0.3005278296692479	0.2938419266658959	0.3518891243124159	-0.11420990917849111	0.2307790787581539	0.3676439864423552	-0.01877165045836398	0.23216800910091842	0.3875148183545386	-0.017820795334596386	0.2508749444828451	0.3517651808582141	-0.026388699466445755	0.11938775674342414	0.5331238320126052	-0.5985266249433336	0.1033846458388658	0.5053452142224621	-0.3251594789641518	0.18523361219268328	0.3547159625166017	-0.1201268206475479	0.2675174059004778	0.33734007180600356	-0.034980043070077606	0.26345979258636815	0.3225113073196052	-0.02695247587590209	0.2273138675349471	0.3189749647406759	-0.024290104851674068
